# xmcd CD database file
#
# Track frame offsets:
#	150
#	13569
#	29657
#	51592
#	67694
#	82280
#	107798
#	122358
#	143728
#	158815
#	169505
#	188078
#
# Disc length: 2722 seconds
#
# Revision: 2
# Processed by: cddbd v1.4PL0 Copyright (c) Steve Scherf et al.
# Submitted via: CDex 1.50
#
DISCID=9b0aa00c
DTITLE=Debbie Davies - Key To Love
DYEAR=2003
DGENRE=Blues
TTITLE0=Light The Fuse
TTITLE1=Chicago Line (w/ James Cotton)
TTITLE2=Hard Road (w/ Mick Taylor)
TTITLE3=Room To Move (w/ James Cotton)
TTITLE4=Takin' It All To Vegas
TTITLE5=Dream About The Blues
TTITLE6=Hey To Love
TTITLE7=I Should Know Better
TTITLE8=I'm A Sucker For Love
TTITLE9=Steppin' Out
TTITLE10=Nature's Disappearing (w/ Peter Green)
TTITLE11=I Just Came To Play
EXTD=YEAR: 2003
EXTT0=
EXTT1=
EXTT2=
EXTT3=
EXTT4=
EXTT5=
EXTT6=
EXTT7=
EXTT8=
EXTT9=
EXTT10=
EXTT11=
PLAYORDER=
